<svg width="20" height="20" viewBox="0 0 20 20" fill="none" xmlns="http://www.w3.org/2000/svg">
<path d="M7.98142 7.95183C7.56976 7.95183 7.23627 8.28784 7.23627 8.70204V13.5704C7.23627 13.9846 7.56976 14.3206 7.98142 14.3206C8.39308 14.3206 8.72658 13.9846 8.72658 13.5704V8.70204C8.72658 8.28784 8.39308 7.95183 7.98142 7.95183Z" fill="#DB162F"/>
<path d="M11.8492 7.95183C11.4375 7.95183 11.104 8.28784 11.104 8.70204V13.5704C11.104 13.9846 11.4375 14.3206 11.8492 14.3206C12.2608 14.3206 12.5943 13.9846 12.5943 13.5704V8.70204C12.5943 8.28784 12.2608 7.95183 11.8492 7.95183Z" fill="#DB162F"/>
<path fill-rule="evenodd" clip-rule="evenodd" d="M14.511 2.18722C14.5353 2.42349 14.5449 2.69281 14.5486 2.99378C14.6333 3.00304 14.716 3.01323 14.7967 3.02444C15.7187 3.15257 16.4937 3.42758 17.0887 4.07168C17.6838 4.71577 17.9002 5.51395 17.9606 6.44913C18.0188 7.35066 17.9367 8.49329 17.8348 9.9118L17.5471 13.9158C17.458 15.1566 17.3858 16.161 17.2255 16.9494C17.0587 17.77 16.7784 18.4578 16.2031 18.9967C15.6278 19.5356 14.9263 19.7675 14.1014 19.8759C13.3088 19.98 12.3087 19.98 11.0733 19.98H9.07507C7.87246 19.98 6.89806 19.98 6.12376 19.8796C5.31738 19.775 4.63009 19.5514 4.05976 19.0323C3.48945 18.5133 3.19928 17.8473 3.0147 17.05C2.83745 16.2844 2.73928 15.3083 2.61811 14.1034L2.21541 10.0997C2.06924 8.64671 1.95162 7.4775 1.98601 6.55398C2.02164 5.5968 2.22247 4.77659 2.82031 4.11054C3.41817 3.44447 4.20839 3.1606 5.1506 3.02843C5.20847 3.02032 5.26739 3.01272 5.32737 3.0056C5.33098 2.69986 5.34042 2.42658 5.36506 2.18722C5.40726 1.77736 5.50038 1.38297 5.74317 1.02607C5.90997 0.78088 6.12045 0.56894 6.36395 0.40097C6.71842 0.15647 7.11014 0.0626902 7.51722 0.0201902C7.90272 -0.0200528 8.37779 -0.0200368 8.93426 -0.0200188H10.9428C11.4993 -0.0200368 11.9734 -0.0200528 12.3589 0.0201902C12.7659 0.0626902 13.1577 0.15647 13.5121 0.40097C13.7556 0.56894 13.9661 0.78088 14.1329 1.02607C14.3757 1.38297 14.4688 1.77736 14.511 2.18722ZM13.0287 2.34193C13.0449 2.4997 13.0529 2.68413 13.0568 2.9113C12.5417 2.90094 11.976 2.90095 11.3577 2.90096H8.67709C7.99624 2.90095 7.37781 2.90094 6.81919 2.91413C6.82311 2.68566 6.83112 2.50036 6.84743 2.34193C6.87715 2.0533 6.92787 1.93987 6.97274 1.87391C7.03549 1.78166 7.11468 1.70193 7.20628 1.63874C7.27174 1.59359 7.38433 1.54252 7.67093 1.5126C7.97041 1.48134 8.36657 1.4804 8.9711 1.4804H10.905C11.5095 1.4804 11.9057 1.48134 12.2051 1.5126C12.4917 1.54252 12.6043 1.59359 12.6698 1.63874C12.7614 1.70193 12.8406 1.78166 12.9033 1.87391C12.9482 1.93987 12.9989 2.0533 13.0287 2.34193ZM5.35625 4.51449C6.15042 4.40309 7.21329 4.40137 8.73467 4.40137H11.301C12.7834 4.40137 13.8179 4.40306 14.5929 4.51076C15.3465 4.61549 15.732 4.80619 15.9975 5.09355C16.263 5.38093 16.4241 5.78192 16.4734 6.54645C16.5242 7.33262 16.4512 8.37174 16.3443 9.8606L16.0645 13.7552C15.9707 15.0608 15.904 15.9671 15.7655 16.6485C15.6312 17.3087 15.4478 17.6548 15.1879 17.8982C14.9281 18.1416 14.5721 18.3009 13.9085 18.3881C13.2237 18.4781 12.3211 18.4796 11.0212 18.4796H9.12641C7.86032 18.4796 6.98218 18.4781 6.31418 18.3915C5.66728 18.3076 5.31727 18.1542 5.05916 17.9193C4.80103 17.6844 4.6142 17.3491 4.4661 16.7094C4.31318 16.0489 4.22325 15.1693 4.09567 13.9009L3.70394 10.0062C3.55063 8.48208 3.44523 7.41706 3.47527 6.61019C3.50451 5.82484 3.66004 5.41286 3.92602 5.11653C4.19199 4.82021 4.58331 4.62291 5.35625 4.51449Z" fill="#DB162F"/>
</svg>
